# xmcd CD database file
#
# Track frame offsets:
#	150
#	21739
#	41930
#	57863
#	76241
#	94890
#	112005
#	131012
#
# Disc length: 2006 seconds
#
# Revision: 0
# Processed by: cddbd v1.5.2PL0 Copyright (c) Steve Scherf et al.
# Submitted via: CDex 1.51
#
DISCID=7007d408
DTITLE=Various Artist - Marie Nuff Love
DYEAR=1900
DGENRE=Blues
TTITLE0=Various Artist - I Remember
TTITLE1=Various Artist - I Look To You
TTITLE2=Various Artist - Weakness In Me
TTITLE3=Various Artist - White Horse
TTITLE4=Various Artist - Tim McGraw
TTITLE5=Various Artist - Teardrops On My Guitar
TTITLE6=Various Artist - Breathe In
TTITLE7=Various Artist - Footprints In The Sand
EXTD=
EXTT0=
EXTT1=
EXTT2=
EXTT3=
EXTT4=
EXTT5=
EXTT6=
EXTT7=
PLAYORDER=
